<svg width="291" height="282" viewBox="0 0 291 282" fill="none" xmlns="http://www.w3.org/2000/svg">
<path d="M153.11 19.5569L148.784 38.9597L128.748 119.548L45.4121 120.829L25.5331 120.746C20.742 120.591 16.0523 121.854 12.0448 124.378C8.0373 126.902 4.8882 130.577 2.98762 134.946C1.08705 139.316 0.518517 144.188 1.35247 148.96C2.18642 153.732 4.38621 158.193 7.6793 161.792L97.8086 274.713C100.614 278.227 104.658 280.516 109.053 281.076C113.448 281.637 117.833 280.422 121.244 277.7L151.405 253.626L91.371 178.41L174.707 177.129L194.432 96.151L254.466 171.367L284.628 147.293C288.038 144.571 290.195 140.564 290.623 136.154C291.051 131.745 289.716 127.293 286.911 123.779L196.782 10.8576C193.949 6.94503 190.073 3.91203 185.623 2.12733C181.173 0.342626 176.341 -0.11692 171.715 0.804543C167.089 1.72601 162.868 3.9888 159.565 7.31786C156.262 10.6469 154.02 14.8989 153.11 19.5569Z" fill="white" fill-opacity="0.35" style="mix-blend-mode:overlay"/>
<path d="M153.11 19.5569L148.784 38.9597L128.748 119.548L45.4121 120.829L25.5331 120.746C20.742 120.591 16.0523 121.854 12.0448 124.378C8.0373 126.902 4.8882 130.577 2.98762 134.946C1.08705 139.316 0.518517 144.188 1.35247 148.96C2.18642 153.732 4.38621 158.193 7.6793 161.792L97.8086 274.713C100.614 278.227 104.658 280.516 109.053 281.076C113.448 281.637 117.833 280.422 121.244 277.7L151.405 253.626L91.371 178.41L174.707 177.129L194.432 96.151L254.466 171.367L284.628 147.293C288.038 144.571 290.195 140.564 290.623 136.154C291.051 131.745 289.716 127.293 286.911 123.779L196.782 10.8576C193.949 6.94503 190.073 3.91203 185.623 2.12733C181.173 0.342626 176.341 -0.11692 171.715 0.804543C167.089 1.72601 162.868 3.9888 159.565 7.31786C156.262 10.6469 154.02 14.8989 153.11 19.5569Z" stroke="black"/>
</svg>
